<?xml version="1.0" encoding="UTF-8" standalone="no"?>
<svg
   data-v-fde0c5aa=""
   viewBox="0 0 221.30673 35.072136"
   class="iconLeft"
   version="1.1"
   id="svg3"
   sodipodi:docname="logo.svg"
   inkscape:version="1.4 (e7c3feb1, 2024-10-09)"
   width="221.30673"
   height="35.072136"
   xmlns:inkscape="http://www.inkscape.org/namespaces/inkscape"
   xmlns:sodipodi="http://sodipodi.sourceforge.net/DTD/sodipodi-0.dtd"
   xmlns:xlink="http://www.w3.org/1999/xlink"
   xmlns="http://www.w3.org/2000/svg"
   xmlns:svg="http://www.w3.org/2000/svg">
  <sodipodi:namedview
     id="namedview3"
     pagecolor="#ffffff"
     bordercolor="#000000"
     borderopacity="0.25"
     inkscape:showpageshadow="2"
     inkscape:pageopacity="0.0"
     inkscape:pagecheckerboard="0"
     inkscape:deskcolor="#d1d1d1"
     inkscape:zoom="2.7853236"
     inkscape:cx="98.013746"
     inkscape:cy="5.7443954"
     inkscape:window-width="1456"
     inkscape:window-height="773"
     inkscape:window-x="0"
     inkscape:window-y="38"
     inkscape:window-maximized="0"
     inkscape:current-layer="svg3" />
  <!---->
  <defs
     data-v-fde0c5aa=""
     id="defs1">
    <linearGradient
       data-v-fde0c5aa=""
       gradientTransform="rotate(25)"
       id="linearGradient5"
       x1="0"
       y1="0"
       x2="1"
       y2="0">
      <stop
         data-v-fde0c5aa=""
         offset="0"
         stop-color="#01695A"
         stop-opacity="1"
         id="stop4"
         style="stop-color:#4ba19d;stop-opacity:1;" />
      <stop
         data-v-fde0c5aa=""
         offset="1"
         stop-color="#2CC26F"
         stop-opacity="1"
         id="stop5"
         style="stop-color:#98c1bb;stop-opacity:1;" />
    </linearGradient>
    <!---->
    <linearGradient
       inkscape:collect="always"
       xlink:href="#linearGradient5"
       id="linearGradient3"
       gradientTransform="scale(1.2592893,0.79409871)"
       x1="0.00011538711"
       y1="-7.95099e-06"
       x2="54.040005"
       y2="-7.95099e-06"
       gradientUnits="userSpaceOnUse" />
    <linearGradient
       inkscape:collect="always"
       xlink:href="#linearGradient5"
       id="linearGradient4"
       gradientTransform="scale(1.2592893,0.79409871)"
       x1="6.627851"
       y1="-17.726686"
       x2="47.412273"
       y2="17.726671"
       gradientUnits="userSpaceOnUse" />
  </defs>
  <rect
     data-v-fde0c5aa=""
     fill="transparent"
     x="0"
     y="0"
     width="221.30673"
     height="35.072136"
     class="logo-background-square"
     id="rect1"
     inkscape:label="rect1"
     style="opacity:0;stroke-width:0.311877"
     ry="0.3590247" />
  <defs
     data-v-fde0c5aa=""
     id="defs2">
    <!---->
  </defs>
  <g
     data-v-fde0c5aa=""
     id="086ba023-f90c-4695-b4dc-1cd6b2a60eae"
     fill="#000000"
     transform="matrix(1.2406317,0,0,1.2406317,50.810871,6.0350301)">
    <path
       d="M 2.63,11.97 H 8.2 v 1.05 H 1.51 V 3.78 H 7.99 V 4.83 H 2.63 V 7.81 H 6.8 V 8.86 H 2.63 Z M 18.37,5.88 q 0.7,0 1.31,0.29 0.61,0.28 0.98,0.89 0.38,0.6 0.38,1.48 v 0 4.48 H 19.92 V 8.65 q 0,-0.91 -0.45,-1.35 -0.46,-0.44 -1.2,-0.44 v 0 q -0.56,0 -1.03,0.27 -0.47,0.28 -0.76,0.8 -0.28,0.53 -0.28,1.25 v 0 3.84 H 15.08 V 8.65 Q 15.08,7.74 14.62,7.3 14.17,6.86 13.43,6.86 v 0 q -0.51,0 -0.98,0.26 -0.48,0.26 -0.79,0.8 -0.31,0.55 -0.31,1.36 v 0 3.74 h -1.12 v -7 h 0.98 l 0.07,1.09 q 0.37,-0.61 0.96,-0.92 0.6,-0.31 1.28,-0.31 v 0 q 0.77,0 1.43,0.35 0.65,0.35 0.98,1.02 v 0 q 0.31,-0.67 1.01,-1.02 0.7,-0.35 1.43,-0.35 z m 5.77,-1.2 Q 23.76,4.68 23.53,4.44 23.3,4.21 23.3,3.84 v 0 Q 23.3,3.46 23.53,3.23 23.76,3 24.14,3 v 0 q 0.37,0 0.61,0.23 0.23,0.23 0.23,0.61 v 0 q 0,0.37 -0.23,0.6 -0.24,0.24 -0.61,0.24 z m 0.56,1.34 v 7 h -1.12 v -7 z M 28.36,2.8 v 8.34 q 0,0.54 0.17,0.74 0.16,0.2 0.59,0.2 v 0 q 0.29,0 0.51,-0.04 0.22,-0.04 0.51,-0.15 v 0 l -0.18,1.07 q -0.46,0.2 -1.04,0.2 v 0 q -0.85,0 -1.26,-0.46 -0.42,-0.46 -0.42,-1.42 v 0 -8.48 z m 8.82,3.22 -3.29,8.18 q -0.4,1 -0.91,1.42 -0.5,0.41 -1.3,0.41 v 0 q -0.53,0 -0.89,-0.14 -0.35,-0.14 -0.65,-0.45 v 0 l 0.39,-0.95 q 0.41,0.56 1.14,0.56 v 0 q 0.4,0 0.72,-0.25 0.31,-0.24 0.55,-0.88 v 0 l 0.37,-0.91 -2.93,-6.99 h 1.27 l 1.75,4.56 0.44,1.25 0.5,-1.39 1.64,-4.42 z m 7.3,5.95 h 5.29 v 1.05 H 43.36 V 3.78 h 1.12 z m 12.78,0.24 q 0.28,0 0.56,-0.07 v 0 l -0.07,0.88 q -0.39,0.14 -0.84,0.14 v 0 q -0.55,0 -0.86,-0.24 -0.32,-0.24 -0.4,-0.8 v 0 q -0.32,0.49 -0.95,0.77 -0.62,0.27 -1.3,0.27 v 0 q -1.04,0 -1.71,-0.48 -0.67,-0.49 -0.67,-1.4 v 0 q 0,-0.79 0.7,-1.38 0.7,-0.58 2.03,-0.8 v 0 L 55.61,8.79 V 8.4 q 0,-0.7 -0.44,-1.12 -0.43,-0.42 -1.2,-0.42 v 0 q -0.7,0 -1.21,0.34 -0.51,0.33 -0.79,0.99 v 0 L 51.14,7.59 Q 51.42,6.8 52.18,6.34 52.95,5.88 53.97,5.88 v 0 q 1.25,0 2,0.6 0.76,0.6 0.76,1.78 v 0 3.44 q 0,0.26 0.12,0.38 0.13,0.13 0.41,0.13 z m -3.81,-0.03 q 0.88,0 1.52,-0.42 0.64,-0.42 0.64,-1.09 v 0 V 9.7 L 54.04,10 q -0.94,0.16 -1.4,0.48 -0.46,0.31 -0.46,0.8 v 0 q 0,0.44 0.33,0.67 0.34,0.23 0.94,0.23 z M 60,4.68 q -0.37,0 -0.61,-0.24 -0.23,-0.23 -0.23,-0.6 v 0 q 0,-0.38 0.23,-0.61 Q 59.63,3 60,3 v 0 q 0.38,0 0.61,0.23 0.23,0.23 0.23,0.61 v 0 q 0,0.37 -0.23,0.6 Q 60.38,4.68 60,4.68 Z m 0.56,1.34 v 7 h -1.12 v -7 z m 6.01,-0.14 q 1.19,0 1.96,0.69 0.77,0.68 0.77,1.97 v 0 4.48 H 68.18 V 8.93 q 0,-1.09 -0.47,-1.58 -0.47,-0.49 -1.25,-0.49 v 0 q -0.56,0 -1.05,0.24 -0.49,0.25 -0.81,0.8 -0.31,0.56 -0.31,1.4 v 0 3.72 h -1.12 v -7 h 0.98 l 0.07,1.09 q 0.35,-0.63 0.96,-0.93 0.62,-0.3 1.39,-0.3 z m 9.17,6.24 q 0.99,0 1.55,0.45 0.56,0.45 0.56,1.22 v 0 q 0,0.67 -0.46,1.18 -0.46,0.51 -1.25,0.79 -0.79,0.27 -1.74,0.27 v 0 q -1.6,0 -2.41,-0.51 -0.81,-0.51 -0.81,-1.34 v 0 q 0,-0.47 0.32,-0.84 0.33,-0.36 0.91,-0.52 v 0 q -0.44,-0.21 -0.69,-0.53 -0.26,-0.32 -0.26,-0.75 v 0 q 0,-0.52 0.28,-0.87 0.28,-0.34 0.77,-0.51 v 0 Q 72,9.86 71.74,9.36 71.48,8.86 71.48,8.25 v 0 q 0,-0.69 0.37,-1.23 0.36,-0.54 1.02,-0.84 0.66,-0.3 1.48,-0.3 v 0 q 0.79,0 1.43,0.28 v 0 q 0.39,-1.43 1.98,-1.43 v 0 l 0.25,0.98 q -1.37,0 -1.67,0.77 v 0 q 0.42,0.32 0.65,0.77 0.23,0.45 0.23,1 v 0 q 0,0.68 -0.36,1.22 -0.36,0.54 -1.02,0.84 -0.66,0.3 -1.49,0.3 v 0 q -0.61,0 -1.07,-0.12 v 0 q -0.42,0.09 -0.61,0.3 -0.18,0.21 -0.18,0.58 v 0 q 0,0.36 0.25,0.56 0.26,0.19 0.68,0.19 v 0 z M 74.35,6.79 q -0.72,0 -1.21,0.41 -0.49,0.4 -0.49,1.05 v 0 q 0,0.64 0.49,1.05 0.49,0.4 1.21,0.4 v 0 q 0.73,0 1.22,-0.4 0.49,-0.41 0.49,-1.05 v 0 Q 76.06,7.6 75.57,7.2 75.08,6.79 74.35,6.79 Z m 0.17,8.3 q 1.07,0 1.68,-0.34 0.62,-0.34 0.62,-0.83 v 0 q 0,-0.41 -0.32,-0.62 -0.31,-0.21 -1.07,-0.21 v 0 h -1.87 q -0.65,0 -1,0.23 -0.35,0.23 -0.35,0.64 v 0 q 0,0.53 0.59,0.83 0.59,0.3 1.72,0.3 z M 90.62,3.78 V 4.83 H 87.4 v 8.19 H 86.28 V 4.83 H 83.06 V 3.78 Z m 4.87,2.1 q 1.19,0 1.96,0.69 0.77,0.68 0.77,1.97 v 0 4.48 H 97.1 V 8.93 Q 97.1,7.84 96.63,7.35 96.17,6.86 95.38,6.86 v 0 q -0.54,0 -1.04,0.25 -0.5,0.25 -0.81,0.81 -0.32,0.55 -0.32,1.39 v 0 3.71 H 92.09 V 2.8 h 1.12 v 4.27 q 0.35,-0.6 0.95,-0.9 0.59,-0.29 1.33,-0.29 z m 11.27,3.28 q 0,0.39 -0.05,0.78 v 0 h -5.28 q 0.1,1.06 0.71,1.65 0.61,0.59 1.57,0.59 v 0 q 0.77,0 1.28,-0.27 0.51,-0.26 0.7,-0.77 v 0 l 0.93,0.49 q -0.42,0.75 -1.12,1.14 -0.7,0.39 -1.79,0.39 v 0 q -1.58,0 -2.48,-0.97 -0.91,-0.96 -0.91,-2.67 v 0 q 0,-1.71 0.86,-2.67 0.87,-0.97 2.45,-0.97 v 0 q 0.98,0 1.69,0.43 0.72,0.44 1.08,1.18 0.36,0.74 0.36,1.67 z m -3.13,-2.3 q -0.93,0 -1.49,0.55 -0.57,0.54 -0.7,1.54 v 0 h 4.25 q -0.12,-0.98 -0.65,-1.54 -0.53,-0.55 -1.41,-0.55 z m 8.57,-0.98 q 0.5,0 0.77,0.14 v 0 l -0.23,1.09 q -0.33,-0.18 -0.88,-0.18 v 0 q -0.45,0 -0.88,0.26 -0.42,0.26 -0.7,0.78 -0.27,0.53 -0.27,1.27 v 0 3.78 h -1.12 v -7 h 0.91 l 0.16,1.15 q 0.58,-1.29 2.24,-1.29 z m 7.95,6.33 q 0.28,0 0.56,-0.07 v 0 l -0.07,0.88 q -0.39,0.14 -0.84,0.14 v 0 q -0.55,0 -0.86,-0.24 -0.32,-0.24 -0.4,-0.8 v 0 q -0.32,0.49 -0.95,0.77 -0.62,0.27 -1.31,0.27 v 0 q -1.03,0 -1.7,-0.48 -0.68,-0.49 -0.68,-1.4 v 0 q 0,-0.79 0.7,-1.38 0.7,-0.58 2.03,-0.8 v 0 L 118.5,8.79 V 8.4 q 0,-0.7 -0.44,-1.12 -0.43,-0.42 -1.2,-0.42 v 0 q -0.7,0 -1.21,0.34 -0.51,0.33 -0.79,0.99 v 0 l -0.83,-0.6 q 0.28,-0.79 1.04,-1.25 0.77,-0.46 1.79,-0.46 v 0 q 1.24,0 2,0.6 0.76,0.6 0.76,1.78 v 0 3.44 q 0,0.26 0.12,0.38 0.13,0.13 0.41,0.13 z m -3.81,-0.03 q 0.88,0 1.52,-0.42 0.64,-0.42 0.64,-1.09 v 0 -0.97 l -1.57,0.3 q -0.94,0.16 -1.4,0.48 -0.46,0.31 -0.46,0.8 v 0 q 0,0.44 0.33,0.67 0.34,0.23 0.94,0.23 z m 9.44,-6.3 q 1.47,0 2.33,0.97 0.86,0.98 0.86,2.67 v 0 q 0,1.69 -0.86,2.67 -0.86,0.97 -2.33,0.97 v 0 q -0.77,0 -1.38,-0.34 -0.61,-0.33 -0.95,-0.89 v 0 4.03 h -1.12 V 6.02 h 0.98 l 0.07,1.22 q 0.31,-0.62 0.95,-0.99 0.63,-0.37 1.45,-0.37 z m -0.13,6.3 q 1.02,0 1.61,-0.72 0.59,-0.72 0.59,-1.94 v 0 q 0,-1.22 -0.59,-1.94 -0.59,-0.72 -1.61,-0.72 v 0 q -1.01,0 -1.6,0.7 -0.6,0.7 -0.6,1.88 v 0 0.16 q 0,1.18 0.6,1.88 0.59,0.7 1.6,0.7 z m 11.24,-6.16 -3.29,8.18 q -0.4,1 -0.91,1.42 -0.5,0.41 -1.3,0.41 v 0 q -0.53,0 -0.89,-0.14 -0.36,-0.14 -0.65,-0.45 v 0 l 0.39,-0.95 q 0.41,0.56 1.14,0.56 v 0 q 0.4,0 0.72,-0.25 0.31,-0.24 0.55,-0.88 v 0 l 0.36,-0.91 -2.92,-6.99 h 1.27 l 1.75,4.56 0.44,1.25 0.5,-1.39 1.64,-4.42 z"
       id="path2"
       style="fill:#f7f1e5;fill-opacity:1" />
  </g>
  <defs
     data-v-fde0c5aa=""
     id="defs3">
    <linearGradient
       data-v-fde0c5aa=""
       gradientTransform="rotate(25)"
       id="bf7a3a78-443f-43af-a7f3-73e690e7d29d"
       x1="0"
       y1="0"
       x2="1"
       y2="0">
      <stop
         data-v-fde0c5aa=""
         offset="0%"
         stop-color="#01695A"
         stop-opacity="1"
         id="stop2" />
      <stop
         data-v-fde0c5aa=""
         offset="100%"
         stop-color="#2CC26F"
         stop-opacity="1"
         id="stop3" />
    </linearGradient>
  </defs>
  <g
     data-v-fde0c5aa=""
     id="4cd0478f-5a80-4208-bcb2-b42551b572e8"
     stroke="none"
     fill="url(#bf7a3a78-443f-43af-a7f3-73e690e7d29d)"
     transform="matrix(0.57372665,0,0,0.57372665,0.64092653,5.4054201)"
     style="fill:url(#linearGradient4);stroke-width:1.00048;stroke-dasharray:none">
    <path
       d="M 66.84,0.111 A 1.805,1.805 0 0 0 66.212,0 c -0.613,0 -1.208,0.308 -1.557,0.844 -0.059,0.09 -1.478,2.219 -4.996,3.213 -1.263,0.355 -3.122,0.529 -5.276,0.729 -4.557,0.421 -10.797,1.001 -16.553,3.957 -8.666,4.452 -9.578,12.519 -8.85,16.159 0.347,1.732 1.43,2.866 2.568,3.567 -3.702,5.937 -1.75,14.444 -1.75,14.444 0,0 -0.128,-6.14 3.236,-11.926 0.059,0.092 0.106,0.184 0.174,0.275 1.195,1.631 3.295,2.547 6.241,2.723 a 1.983,1.983 0 0 0 0.272,-0.004 C 63.96,31.822 68,2.362 68.038,2.064 A 1.836,1.836 0 0 0 66.84,0.111 Z M 39.56,32.146 c -3.743,-0.223 -4.975,-1.717 -5.35,-2.944 0.215,-0.294 0.429,-0.589 0.665,-0.876 5.257,-6.381 15.664,-12.762 15.664,-12.762 0,0 -12.85,5.604 -17.886,11.419 -0.774,-0.436 -1.615,-1.186 -1.867,-2.441 -0.499,-2.5 -0.222,-9.995 7.886,-14.161 C 46.777,6.217 55.828,7.052 60.158,5.829 64.49,4.607 66.211,1.83 66.211,1.83 c 0,0 -3.609,28.265 -26.651,30.316 z M 27.773,30.186 C 28.298,27.555 27.651,21.737 21.439,18.543 17.416,16.479 13.099,16.076 9.947,15.785 8.511,15.65 7.27,15.535 6.463,15.308 4.306,14.7 3.427,13.416 3.406,13.387 A 1.84,1.84 0 0 0 1.225,12.622 1.842,1.842 0 0 0 0.015,14.591 C 0.041,14.8 2.857,35.325 19.828,36.84 a 1.777,1.777 0 0 0 0.273,0.004 c 2.188,-0.132 3.766,-0.836 4.688,-2.094 0.019,-0.025 0.033,-0.053 0.051,-0.079 2.042,3.741 2.067,7.634 2.067,7.634 0,0 1.04,-5.384 -1.08,-9.349 0.866,-0.554 1.678,-1.439 1.946,-2.77 z m -1.806,-0.363 c -0.163,0.81 -0.685,1.305 -1.188,1.608 -3.442,-3.904 -10.732,-6.644 -10.732,-6.644 0,0 5.429,3.227 9.129,7.471 0.175,0.2 0.334,0.407 0.492,0.614 -0.209,0.855 -0.997,1.971 -3.677,2.131 C 4.301,33.605 1.842,14.359 1.842,14.359 c 0,0 1.174,1.891 4.121,2.723 2.949,0.83 9.113,0.264 14.635,3.1 5.519,2.837 5.709,7.94 5.369,9.641 z"
       id="path3"
       style="fill:url(#linearGradient3);stroke-width:1.00048;stroke-dasharray:none" />
  </g>
  <!---->
</svg>
