<?xml version="1.0" encoding="UTF-8" standalone="no"?>
<!-- Created with Inkscape (http://www.inkscape.org/) -->

<svg
   width="10.33017mm"
   height="6.5141306mm"
   viewBox="0 0 10.33017 6.5141306"
   version="1.1"
   id="svg1"
   inkscape:version="1.4 (e7c3feb1, 2024-10-09)"
   sodipodi:docname="favicon.svg"
   xmlns:inkscape="http://www.inkscape.org/namespaces/inkscape"
   xmlns:sodipodi="http://sodipodi.sourceforge.net/DTD/sodipodi-0.dtd"
   xmlns:xlink="http://www.w3.org/1999/xlink"
   xmlns="http://www.w3.org/2000/svg"
   xmlns:svg="http://www.w3.org/2000/svg">
  <sodipodi:namedview
     id="namedview1"
     pagecolor="#ffffff"
     bordercolor="#000000"
     borderopacity="0.25"
     inkscape:showpageshadow="2"
     inkscape:pageopacity="0.0"
     inkscape:pagecheckerboard="0"
     inkscape:deskcolor="#d1d1d1"
     inkscape:document-units="mm"
     inkscape:zoom="10.594251"
     inkscape:cx="11.326898"
     inkscape:cy="12.837151"
     inkscape:window-width="1440"
     inkscape:window-height="659"
     inkscape:window-x="0"
     inkscape:window-y="80"
     inkscape:window-maximized="0"
     inkscape:current-layer="4cd0478f-5a80-4208-bcb2-b42551b572e8"
     inkscape:export-bgcolor="#026455fa" />
  <defs
     id="defs1">
    <linearGradient
       data-v-fde0c5aa=""
       gradientTransform="rotate(25)"
       id="linearGradient9"
       x1="0"
       y1="0"
       x2="1"
       y2="0">
      <stop
         data-v-fde0c5aa=""
         offset="0"
         stop-color="#01695A"
         stop-opacity="1"
         id="stop8"
         style="stop-color:#026456;stop-opacity:1;" />
      <stop
         data-v-fde0c5aa=""
         offset="1"
         stop-color="#2CC26F"
         stop-opacity="1"
         id="stop9"
         style="stop-color:#98c1bb;stop-opacity:1;" />
    </linearGradient>
    <linearGradient
       inkscape:collect="always"
       xlink:href="#linearGradient5"
       id="linearGradient4"
       gradientTransform="scale(1.2592893,0.79409871)"
       x1="6.627851"
       y1="-17.726686"
       x2="47.412273"
       y2="17.726671"
       gradientUnits="userSpaceOnUse" />
    <linearGradient
       data-v-fde0c5aa=""
       gradientTransform="rotate(25)"
       id="linearGradient5"
       x1="0"
       y1="0"
       x2="1"
       y2="0">
      <stop
         data-v-fde0c5aa=""
         offset="0"
         stop-color="#01695A"
         stop-opacity="1"
         id="stop4"
         style="stop-color:#4ba19d;stop-opacity:1;" />
      <stop
         data-v-fde0c5aa=""
         offset="1"
         stop-color="#2CC26F"
         stop-opacity="1"
         id="stop5"
         style="stop-color:#98c1bb;stop-opacity:1;" />
    </linearGradient>
    <linearGradient
       inkscape:collect="always"
       xlink:href="#linearGradient9"
       id="linearGradient2"
       gradientUnits="userSpaceOnUse"
       gradientTransform="matrix(1.2592893,0,0,0.79409871,0.03026701,0.30019897)"
       x1="0.00011538711"
       y1="-7.95099e-06"
       x2="54.040005"
       y2="-7.95099e-06" />
    <inkscape:path-effect
       effect="fill_between_many"
       method="originald"
       linkedpaths="#path3-5,0,1|"
       id="path-effect6" />
    <inkscape:path-effect
       effect="fill_between_many"
       method="originald"
       linkedpaths="#4cd0478f-5a80-4208-bcb2-b42551b572e8,0,1|"
       id="path-effect8" />
  </defs>
  <g
     inkscape:label="Layer 1"
     inkscape:groupmode="layer"
     id="layer1"
     transform="translate(-97.631249,-145.25625)">
    <path
       inkscape:original-d="M 0,0"
       inkscape:path-effect="#path-effect8"
       d="M 0,0"
       id="path8"
       style="fill:#026455;fill-opacity:1" />
    <g
       data-v-fde0c5aa=""
       id="4cd0478f-5a80-4208-bcb2-b42551b572e8"
       stroke="none"
       fill="url(#bf7a3a78-443f-43af-a7f3-73e690e7d29d)"
       transform="matrix(0.15179851,0,0,0.15179851,97.631227,145.25625)"
       style="fill:url(#linearGradient4);stroke-width:1.00048;stroke-dasharray:none">
      <path
         inkscape:original-d="M 0,0"
         inkscape:path-effect="#path-effect6"
         d="m 66.870269,0.24667712 c -0.20109,-0.07398 -0.41374,-0.111566 -0.628,-0.111 -0.613,0 -1.208,0.308 -1.557,0.84400003 -0.059,0.09 -1.478,2.21900105 -4.996,3.21300105 -1.263,0.354999 -3.122,0.528999 -5.276,0.729 -4.557,0.420999 -10.797,1.001 -16.553,3.956999 -8.666,4.4520008 -9.578,12.5190008 -8.85,16.1590008 0.347,1.732 1.43,2.866 2.568,3.567 -3.702,5.937 -1.75,14.444 -1.75,14.444 0,0 -0.128,-6.14 3.236,-11.926 0.059,0.092 0.106,0.184 0.174,0.275 1.195,1.631 3.295,2.547 6.241,2.723 0.0906,0.0049 0.18153,0.0036 0.272,-0.004 24.239,-2.159 28.279,-31.6190009 28.317,-31.9170009 0.10568,-0.850871 -0.39163,-1.66159198 -1.198,-1.95299998 z"
         id="path6"
         style="fill:#026455;fill-opacity:1" />
      <path
         d="m 66.870269,0.41119897 c -0.20109,-0.07398 -0.41374,-0.111566 -0.628,-0.111 -0.613,0 -1.208,0.308 -1.557,0.84400003 -0.059,0.09 -1.478,2.219001 -4.996,3.213001 -1.263,0.354999 -3.122,0.528999 -5.276,0.729 -4.557,0.420999 -10.797,1.001 -16.553,3.956999 -8.666,4.452001 -9.578,12.519001 -8.85,16.159001 0.347,1.732 1.43,2.866 2.568,3.567 -3.702,5.937 -1.75,14.444 -1.75,14.444 0,0 -0.128,-6.14 3.236,-11.926 0.059,0.092 0.106,0.184 0.174,0.275 1.195,1.631 3.295,2.547 6.241,2.723 0.0906,0.0049 0.18153,0.0036 0.272,-0.004 24.239,-2.159 28.279,-31.619001 28.317,-31.917001 0.10568,-0.850871 -0.39163,-1.66159203 -1.198,-1.95300003 z M 39.590269,32.4462 c -3.743,-0.223 -4.975,-1.717 -5.35,-2.944 0.215,-0.294 0.429,-0.589 0.665,-0.876 5.257,-6.381 15.664,-12.762 15.664,-12.762 0,0 -12.85,5.604 -17.886,11.419 -0.774,-0.436 0.03022,3.420624 -0.221776,2.165624 -0.499,-2.5 1.094177,6.950795 9.202177,2.784795 7.611433,-0.379988 19.788357,-8.264669 23.131223,-22.8139743 4.332,-1.221999 1.446376,-7.2894457 1.446376,-7.2894457 0,0 -3.609,28.265001 -26.651,30.316001 z m -11.787,-1.96 c 0.525,-2.631 -0.122,-8.449 -6.334,-11.643 -4.023,-2.064 -8.340002,-2.467 -11.492002,-2.758 -1.436,-0.135 -2.677,-0.25 -3.484,-0.477 -2.157,-0.608 -3.036,-1.892 -3.057,-1.921 -0.456165,-0.736753 -1.364561,-1.055379 -2.181,-0.765 -0.81611399,0.290204 -1.31978199,1.109809 -1.20999999,1.969 0.026,0.209 2.84199999,20.734 19.81300199,22.249 0.0908,0.0083 0.18203,0.0097 0.273,0.004 2.188,-0.132 3.766,-0.836 4.688,-2.094 0.019,-0.025 0.033,-0.053 0.051,-0.079 2.042,3.741 2.067,7.634 2.067,7.634 0,0 1.04,-4.972694 -1.08,-8.937694 0.866,-0.554 1.678,-1.850306 1.946,-3.181306 z m -3.052463,2.825368 C 24.176501,33.381218 8.3664745,21.310079 7.8634735,21.613079 c -3.442,-3.904 -1.025187,-0.474414 -1.025187,-0.474414 0,0 13.7731635,8.687888 17.4731635,12.931888 0.175,0.2 0.74687,-0.527666 0.468614,-0.786005 C 25.229153,32.494325 22.701269,35.1432 20.021269,35.3032 4.331267,33.9052 1.872267,14.6592 1.872267,14.6592 c 0,0 -1.12931196,8.800936 1.817688,9.632936 2.1263886,8.398025 9.606567,10.135337 14.47048,10.997069 5.519,2.837 6.930371,-3.678637 6.590371,-1.977637 z"
         id="path3-5"
         style="fill:url(#linearGradient2);fill-rule:nonzero;stroke-width:1.00133;stroke-dasharray:none"
         sodipodi:nodetypes="ccccccccccccccccccccccccccccccccccccccccccccccccc"
         inkscape:export-filename="path3.svg"
         inkscape:export-xdpi="96"
         inkscape:export-ydpi="96"
         transform="translate(4.2100952e-8,-0.16452185)" />
    </g>
  </g>
</svg>
